<svg xmlns="http://www.w3.org/2000/svg" width="96" height="96" viewBox="0 0 96 96" fill="none">
  <defs>
    <linearGradient id="brainGradient" x1="12" y1="10" x2="86" y2="88" gradientUnits="userSpaceOnUse">
      <stop stop-color="#20D9FF"/>
      <stop offset="0.5" stop-color="#2F80FF"/>
      <stop offset="1" stop-color="#C13CFF"/>
    </linearGradient>
  </defs>
  <path d="M35 14c-9 0-16 7-16 16v3c-7 2-12 8-12 16s5 14 12 16v1c0 9 7 16 16 16 5 0 10-3 13-7 3 4 8 7 13 7 9 0 16-7 16-16v-1c7-2 12-8 12-16s-5-14-12-16v-3c0-9-7-16-16-16-6 0-11 3-14 8-3-5-8-8-14-8Z" stroke="url(#brainGradient)" stroke-width="6" stroke-linecap="round" stroke-linejoin="round"/>
  <path d="M47 22v53" stroke="url(#brainGradient)" stroke-width="5" stroke-linecap="round" opacity=".92"/>
  <path d="M27 34h12M25 50h16M29 65h10M57 34h12M55 50h16M57 65h10" stroke="url(#brainGradient)" stroke-width="5" stroke-linecap="round" opacity=".88"/>
</svg>