<svg xmlns="http://www.w3.org/2000/svg" width="520" height="360" viewBox="0 0 520 360" fill="none">
  <defs>
    <radialGradient id="bg" cx="0" cy="0" r="1" gradientUnits="userSpaceOnUse" gradientTransform="translate(270 185) rotate(90) scale(176 208)"><stop stop-color="#A855F7" stop-opacity=".55"/><stop offset=".45" stop-color="#2563EB" stop-opacity=".32"/><stop offset="1" stop-color="#020617" stop-opacity="0"/></radialGradient>
    <linearGradient id="ring" x1="124" y1="70" x2="356" y2="288" gradientUnits="userSpaceOnUse"><stop stop-color="#21D4FD"/><stop offset=".52" stop-color="#2563EB"/><stop offset="1" stop-color="#C026D3"/></linearGradient>
    <linearGradient id="arrow" x1="308" y1="122" x2="452" y2="50" gradientUnits="userSpaceOnUse"><stop stop-color="#22D3EE"/><stop offset=".5" stop-color="#A855F7"/><stop offset="1" stop-color="#F472B6"/></linearGradient>
    <filter id="shadow" x="60" y="28" width="360" height="312" filterUnits="userSpaceOnUse"><feDropShadow dx="0" dy="24" stdDeviation="22" flood-color="#000" flood-opacity=".55"/></filter>
    <filter id="glow" x="-60" y="-60" width="640" height="480"><feGaussianBlur stdDeviation="7" result="b"/><feMerge><feMergeNode in="b"/><feMergeNode in="SourceGraphic"/></feMerge></filter>
  </defs>
  <ellipse cx="270" cy="185" rx="208" ry="176" fill="url(#bg)"/>
  <g filter="url(#shadow)">
    <ellipse cx="250" cy="196" rx="126" ry="54" fill="#020617" opacity=".45"/>
    <circle cx="248" cy="162" r="118" fill="#07112B" stroke="url(#ring)" stroke-width="12"/>
    <circle cx="248" cy="162" r="86" fill="#0B1D48" stroke="#2563EB" stroke-width="10" opacity=".95"/>
    <circle cx="248" cy="162" r="55" fill="#29135F" stroke="#A855F7" stroke-width="9"/>
    <circle cx="248" cy="162" r="25" fill="#E879F9"/>
    <circle cx="248" cy="162" r="12" fill="#1E1B4B"/>
  </g>
  <g filter="url(#glow)">
    <path d="M286 151L426 52L438 80L312 174L286 151Z" fill="url(#arrow)"/>
    <path d="M426 52L468 24L459 72L438 80L426 52Z" fill="#60A5FA"/>
    <path d="M438 80L481 81L447 112L312 174L438 80Z" fill="#A855F7" opacity=".92"/>
  </g>
  <g filter="url(#glow)">
    <circle cx="116" cy="111" r="18" fill="#22D3EE" opacity=".9"/>
    <circle cx="398" cy="223" r="21" fill="#38BDF8" opacity=".85"/>
    <circle cx="376" cy="79" r="10" fill="#60A5FA" opacity=".9"/>
    <circle cx="156" cy="236" r="8" fill="#A855F7" opacity=".9"/>
    <circle cx="448" cy="151" r="7" fill="#2563EB" opacity=".9"/>
  </g>
</svg>
