<svg xmlns="http://www.w3.org/2000/svg" viewBox="0 0 96 96" fill="none">
  <defs>
    <linearGradient id="kaufm_ios_stroke" x1="22" y1="16" x2="76" y2="82" gradientUnits="userSpaceOnUse">
      <stop stop-color="#FBBF24"/>
      <stop offset="0.55" stop-color="#F97316"/>
      <stop offset="1" stop-color="#38BDF8"/>
    </linearGradient>
    <linearGradient id="kaufm_ios_fill" x1="20" y1="10" x2="80" y2="86" gradientUnits="userSpaceOnUse">
      <stop stop-color="#FBBF24" stop-opacity="0.20"/>
      <stop offset="0.62" stop-color="#F97316" stop-opacity="0.16"/>
      <stop offset="1" stop-color="#38BDF8" stop-opacity="0.14"/>
    </linearGradient>
  </defs>
  <rect x="17" y="16" width="62" height="66" rx="18" fill="url(#kaufm_ios_fill)"/>
  <path d="M31 31h34a7 7 0 0 1 7 7v35H24V38a7 7 0 0 1 7-7Z" stroke="url(#kaufm_ios_stroke)" stroke-width="5.5" stroke-linecap="round" stroke-linejoin="round"/>
  <path d="M37 31v-6a6 6 0 0 1 6-6h10a6 6 0 0 1 6 6v6" stroke="url(#kaufm_ios_stroke)" stroke-width="5.5" stroke-linecap="round" stroke-linejoin="round"/>
  <path d="M24 49h48" stroke="url(#kaufm_ios_stroke)" stroke-width="5.5" stroke-linecap="round"/>
  <path d="M39 62h18" stroke="url(#kaufm_ios_stroke)" stroke-width="5.5" stroke-linecap="round"/>
  <path d="M29 73h38" stroke="#F97316" stroke-opacity="0.32" stroke-width="2.5" stroke-linecap="round"/>
</svg>
